<svg width="188" height="40" viewBox="0 0 188 40" fill="none" xmlns="http://www.w3.org/2000/svg">
<path d="M73.168 14.512C74.8 14.512 76.112 15.016 77.104 16.024C78.112 17.016 78.616 18.408 78.616 20.2V28H75.256V20.656C75.256 19.616 74.992 18.824 74.464 18.28C73.936 17.72 73.216 17.44 72.304 17.44C71.392 17.44 70.664 17.72 70.12 18.28C69.592 18.824 69.328 19.616 69.328 20.656V28H65.968V20.656C65.968 19.616 65.704 18.824 65.176 18.28C64.648 17.72 63.928 17.44 63.016 17.44C62.088 17.44 61.352 17.72 60.808 18.28C60.28 18.824 60.016 19.616 60.016 20.656V28H56.656V14.704H60.016V16.312C60.448 15.752 61 15.312 61.672 14.992C62.36 14.672 63.112 14.512 63.928 14.512C64.968 14.512 65.896 14.736 66.712 15.184C67.528 15.616 68.16 16.24 68.608 17.056C69.04 16.288 69.664 15.672 70.48 15.208C71.312 14.744 72.208 14.512 73.168 14.512ZM94.5244 14.704L86.2924 34.288H82.7164L85.5964 27.664L80.2684 14.704H84.0364L87.4684 23.992L90.9484 14.704H94.5244ZM118.566 14.512C120.198 14.512 121.51 15.016 122.502 16.024C123.51 17.016 124.014 18.408 124.014 20.2V28H120.654V20.656C120.654 19.616 120.39 18.824 119.862 18.28C119.334 17.72 118.614 17.44 117.702 17.44C116.79 17.44 116.062 17.72 115.518 18.28C114.99 18.824 114.726 19.616 114.726 20.656V28H111.366V20.656C111.366 19.616 111.102 18.824 110.574 18.28C110.046 17.72 109.326 17.44 108.414 17.44C107.486 17.44 106.75 17.72 106.206 18.28C105.678 18.824 105.414 19.616 105.414 20.656V28H102.054V14.704H105.414V16.312C105.846 15.752 106.398 15.312 107.07 14.992C107.758 14.672 108.51 14.512 109.326 14.512C110.366 14.512 111.294 14.736 112.11 15.184C112.926 15.616 113.558 16.24 114.006 17.056C114.438 16.288 115.062 15.672 115.878 15.208C116.71 14.744 117.606 14.512 118.566 14.512ZM133.107 28.216C131.827 28.216 130.675 27.936 129.651 27.376C128.627 26.8 127.819 25.992 127.227 24.952C126.651 23.912 126.363 22.712 126.363 21.352C126.363 19.992 126.659 18.792 127.251 17.752C127.859 16.712 128.683 15.912 129.723 15.352C130.763 14.776 131.923 14.488 133.203 14.488C134.483 14.488 135.643 14.776 136.683 15.352C137.723 15.912 138.539 16.712 139.131 17.752C139.739 18.792 140.043 19.992 140.043 21.352C140.043 22.712 139.731 23.912 139.107 24.952C138.499 25.992 137.667 26.8 136.611 27.376C135.571 27.936 134.403 28.216 133.107 28.216ZM133.107 25.288C133.715 25.288 134.283 25.144 134.811 24.856C135.355 24.552 135.787 24.104 136.107 23.512C136.427 22.92 136.587 22.2 136.587 21.352C136.587 20.088 136.251 19.12 135.579 18.448C134.923 17.76 134.115 17.416 133.155 17.416C132.195 17.416 131.387 17.76 130.731 18.448C130.091 19.12 129.771 20.088 129.771 21.352C129.771 22.616 130.083 23.592 130.707 24.28C131.347 24.952 132.147 25.288 133.107 25.288ZM149.876 14.512C151.46 14.512 152.74 15.016 153.716 16.024C154.692 17.016 155.18 18.408 155.18 20.2V28H151.82V20.656C151.82 19.6 151.556 18.792 151.028 18.232C150.5 17.656 149.78 17.368 148.868 17.368C147.94 17.368 147.204 17.656 146.66 18.232C146.132 18.792 145.868 19.6 145.868 20.656V28H142.508V14.704H145.868V16.36C146.316 15.784 146.884 15.336 147.572 15.016C148.276 14.68 149.044 14.512 149.876 14.512ZM170.735 21.064C170.735 21.544 170.703 21.976 170.639 22.36H160.919C160.999 23.32 161.335 24.072 161.927 24.616C162.519 25.16 163.247 25.432 164.111 25.432C165.359 25.432 166.247 24.896 166.775 23.824H170.399C170.015 25.104 169.279 26.16 168.191 26.992C167.103 27.808 165.767 28.216 164.183 28.216C162.903 28.216 161.751 27.936 160.727 27.376C159.719 26.8 158.927 25.992 158.351 24.952C157.791 23.912 157.511 22.712 157.511 21.352C157.511 19.976 157.791 18.768 158.351 17.728C158.911 16.688 159.695 15.888 160.703 15.328C161.711 14.768 162.871 14.488 164.183 14.488C165.447 14.488 166.575 14.76 167.567 15.304C168.575 15.848 169.351 16.624 169.895 17.632C170.455 18.624 170.735 19.768 170.735 21.064ZM167.255 20.104C167.239 19.24 166.927 18.552 166.319 18.04C165.711 17.512 164.967 17.248 164.087 17.248C163.255 17.248 162.551 17.504 161.975 18.016C161.415 18.512 161.071 19.208 160.943 20.104H167.255ZM185.907 14.704L177.675 34.288H174.099L176.979 27.664L171.651 14.704H175.419L178.851 23.992L182.331 14.704H185.907Z" fill="#858CA6"/>
<path d="M34.1422 5.85781C30.3647 2.08031 25.3422 0 20 0C14.6578 0 9.63531 2.08031 5.85781 5.85781C2.08031 9.63531 0 14.6578 0 20C0 25.3422 2.08039 30.3646 5.85781 34.1422C9.63523 37.9198 14.6578 40 20 40C25.3422 40 30.3647 37.9197 34.1422 34.1422C37.9197 30.3647 40 25.3422 40 20C40 14.6578 37.9196 9.63539 34.1422 5.85781Z" fill="#33CC95"/>
<g clip-path="url(#clip0)">
<path d="M20.5714 8V33.1429" stroke="white" stroke-width="2" stroke-linecap="round" stroke-linejoin="round"/>
<path d="M26.2857 12.5714H17.7143C16.6534 12.5714 15.636 12.9929 14.8859 13.743C14.1357 14.4931 13.7143 15.5106 13.7143 16.5714C13.7143 17.6323 14.1357 18.6497 14.8859 19.3999C15.636 20.15 16.6534 20.5714 17.7143 20.5714H23.4286C24.4894 20.5714 25.5069 20.9929 26.257 21.743C27.0072 22.4932 27.4286 23.5106 27.4286 24.5714C27.4286 25.6323 27.0072 26.6497 26.257 27.3999C25.5069 28.15 24.4894 28.5714 23.4286 28.5714H13.7143" stroke="white" stroke-width="2" stroke-linecap="round" stroke-linejoin="round"/>
</g>
<defs>
<clipPath id="clip0">
<rect width="27.4286" height="27.4286" fill="white" transform="translate(6.85715 6.85714)"/>
</clipPath>
</defs>
</svg>
